<?xml version="1.0" encoding="utf-8" ?>
<!-- AlterDay icon symbol — dark theme (teal on transparent) -->
<svg xmlns="http://www.w3.org/2000/svg" width="1024" height="640" viewBox="0 384 1024 640">
  <path fill="#25E3B9" d="M301.728 1024C304.737 1021.25 308.52 1018.27 311.796 1015.8C343.815 991.708 375.206 966.722 407.558 943.087C417.794 935.609 425.28 930.018 433.215 919.733C441.587 908.88 447.279 896.204 449.828 882.736C451.581 873.259 451.127 859.268 451.14 849.245L451.177 802.969L451.131 755.791C451.094 746.918 451.366 735.902 450.296 727.319C448.061 709.384 437.434 692.531 423.988 680.786C415.907 673.727 405.316 668.797 395.712 663.804C384.968 658.164 374.155 652.657 363.275 647.283C321.324 626.416 279.578 604.503 237.822 583.224L203.674 565.969C194.518 561.385 182.905 556.099 174.801 549.89C158.654 537.517 149.701 518.985 146.622 499.237C144.451 485.317 154.707 464.639 163.232 454.178C197.298 412.375 259.864 393.346 311.424 387.187C339.979 383.776 363.708 382.965 387.027 402.024C400.226 412.812 408.673 426.235 412.717 442.776C415.52 454.244 414.749 468.534 414.728 480.507L414.806 539.222C414.824 547.87 414.438 563.807 415.416 572.072C418.179 595.024 432.658 614.896 453.659 624.56C463.613 629.204 472.308 630.939 481.298 638.337C504.793 657.671 509.905 692.649 513.081 720.996C513.761 720.652 513.971 720.464 514.267 719.774L514.544 719.168L514.826 538.233L514.821 491.104C514.817 478.426 514.092 463.466 516.649 451.29C520.039 435.777 527.952 421.616 539.388 410.598C551.074 399.379 565.573 391.525 581.354 387.866C594.146 384.896 605.352 385.487 618.326 385.493L650.677 385.516C676.78 385.319 702.884 385.328 728.987 385.543C780.571 386.274 870.175 412.38 874.591 476.224C875.392 487.82 860.975 509.605 852.718 517.175C845.7 523.485 834.101 531.013 825.918 536.735L772.643 573.72L597.143 696.185L566.288 717.573C553.449 726.398 540.199 734.956 529.932 746.714C516.809 761.741 507.427 783.445 507.098 803.473C506.935 813.364 507.076 823.733 507.119 833.687L507.252 888.362C507.256 933.242 506.64 979.251 507.198 1024L301.728 1024Z"/>
  <path fill="#25E3B9" d="M514.544 719.168C514.502 721.928 514.503 724.689 514.546 727.45L513.451 726.509C513.476 724.489 513.115 722.938 513.081 720.996C513.761 720.652 513.971 720.464 514.267 719.774L514.544 719.168Z"/>
  <path fill="#25E3B9" d="M513.451 726.509L514.546 727.45C514.609 728.262 515.013 732.027 514.691 732.569C514.649 732.561 514.606 732.553 514.564 732.546C513.944 731.831 513.501 727.598 513.451 726.509Z"/>
  <path fill="#25E3B9" fill-rule="evenodd" d="M875.736 524.875L877.042 526.655C877.691 555.201 881.161 582.426 859.643 604.668C854.601 609.881 848.663 613.866 842.822 618.143L821.178 633.95L768.441 673.267C747.745 688.379 729.03 697.406 729.449 726.416C729.638 738.356 734.623 749.719 743.281 757.943C750.922 765.29 774.546 775.605 785.175 780.828L856.132 815.778C873.207 823.996 890.224 832.336 907.18 840.796C924.318 849.232 950.178 860.104 963.524 873.043C977.882 886.963 986.802 905.798 987.098 925.927C987.579 958.585 986.786 991.406 987.175 1024L766.031 1024L642.504 1024L548.952 1024C548.32 980.438 548.976 934.964 548.972 891.271L548.993 841.532C549.008 831.271 548.672 820.171 549.577 809.986C551.043 793.469 560.532 776.544 572.338 765.221C579.61 758.246 588.399 752.574 596.548 746.749L633.788 720.029L793.637 605.944L827.225 581.969C835.864 575.799 844.95 569.963 852.42 562.444C862.795 552.001 871.789 539.182 875.736 524.875Z M642.504 1024L642.455 874.715L642.481 836.676C642.485 822.411 640.957 805.01 652.547 794.156C669.405 778.368 689.88 794.457 706.031 802.436L731.498 814.97C744.308 821.277 755.342 825.832 761.528 839.81C766.558 851.177 765.732 864.051 765.757 876.215L765.794 909.264L766.031 1024L642.504 1024Z"/>
  <path fill="#25E3B9" d="M147.693 555.531C162.344 594.092 185.384 602.312 218.997 619.852L315.029 670.036C325.797 675.626 336.53 681.281 347.229 687.001C376.166 702.204 402.454 716.34 408.291 752.268C409.463 759.479 409.028 767.349 409.014 774.677L408.942 805.408L408.983 838.739C409.003 846.92 409.317 856.275 408.092 864.251C407.127 870.266 405.365 876.126 402.852 881.676C399.064 890.103 393.751 897.757 387.18 904.252C382.364 908.936 375.368 914.092 369.922 918.301L340.683 940.7L232.09 1024L36.4897 1024L36.4821 990.965C36.4879 971.442 35.3103 958.509 42.5461 939.724C53.2589 911.911 70.5845 901.014 94.9283 886.262L127.527 866.507L205.603 818.896C229.982 803.985 254.213 788.824 278.74 774.145C293.723 765.177 303.206 750.42 301.989 732.61C299.985 703.271 269.598 691.966 247.159 680.079L197.786 653.705C191.633 650.471 185.473 647.267 179.355 643.97C160.015 633.55 148.178 615.699 146.925 593.714C147.25 588.068 146.37 558.094 147.693 555.531Z"/>
  <path fill="#25E3B9" d="M147.08 553.434C147.316 554.175 147.508 554.773 147.693 555.531C146.37 558.094 147.25 588.068 146.925 593.714C146.242 589.551 146.629 585.113 146.535 580.872C146.338 571.964 146.857 562.406 146.434 553.548L147.08 553.434Z"/>
  <path fill="#25E3B9" d="M875.736 524.875C875.832 524.23 876.086 521.843 876.71 521.486C877.15 522.126 877.045 525.706 877.042 526.655L875.736 524.875Z"/>
  <path fill="#25E3B9" d="M146.434 553.548C145.342 550.8 146.726 550.429 146.951 552.461C146.988 552.786 147.032 553.11 147.08 553.434L146.434 553.548Z"/>
</svg>
